<mxfile host="app.diagrams.net" modified="2023-12-17T23:17:17.954Z" agent="Mozilla/5.0 (Windows NT 10.0; Win64; x64) AppleWebKit/537.36 (KHTML, like Gecko) Chrome/120.0.0.0 Safari/537.36" etag="t_zHI_HCG6WyJc0G0CBG" version="22.1.11" type="google">
  <diagram name="Sida-1" id="hTdspIWQMLkHA3uCrgPa">
    <mxGraphModel grid="1" page="1" gridSize="10" guides="1" tooltips="1" connect="1" arrows="1" fold="1" pageScale="1" pageWidth="827" pageHeight="1169" math="0" shadow="0">
      <root>
        <mxCell id="0" />
        <mxCell id="1" parent="0" />
        <mxCell id="aZN-3qO0ajhAeM4NUset-1" value="" style="rounded=1;whiteSpace=wrap;html=1;direction=west;" vertex="1" parent="1">
          <mxGeometry x="80" y="40" width="520" height="320" as="geometry" />
        </mxCell>
        <mxCell id="aZN-3qO0ajhAeM4NUset-2" value="" style="rounded=0;whiteSpace=wrap;html=1;" vertex="1" parent="1">
          <mxGeometry x="380" y="70" width="200" height="40" as="geometry" />
        </mxCell>
        <mxCell id="aZN-3qO0ajhAeM4NUset-4" value="" style="rounded=1;whiteSpace=wrap;html=1;" vertex="1" parent="1">
          <mxGeometry x="389" y="140" width="50" height="40" as="geometry" />
        </mxCell>
        <mxCell id="aZN-3qO0ajhAeM4NUset-8" value="" style="rounded=0;whiteSpace=wrap;html=1;" vertex="1" parent="1">
          <mxGeometry x="160" y="70" width="200" height="220" as="geometry" />
        </mxCell>
      </root>
    </mxGraphModel>
  </diagram>
</mxfile>
